<svg width="191" height="154" viewBox="0 0 191 154" fill="none" xmlns="http://www.w3.org/2000/svg">
<path d="M27.84 54.6C34.88 54.984 40.224 56.904 43.872 60.36C47.584 63.752 49.44 68.2 49.44 73.704C49.44 77.544 48.512 80.968 46.656 83.976C44.8 86.92 42.048 89.256 38.4 90.984C34.752 92.712 30.304 93.576 25.056 93.576C20.192 93.576 15.584 92.808 11.232 91.272C6.944 89.672 3.488 87.56 0.864 84.936L4.224 79.464C6.464 81.768 9.44 83.656 13.152 85.128C16.864 86.536 20.832 87.24 25.056 87.24C30.56 87.24 34.816 86.056 37.824 83.688C40.832 81.256 42.336 77.928 42.336 73.704C42.336 69.544 40.832 66.28 37.824 63.912C34.816 61.544 30.272 60.36 24.192 60.36H19.392V55.272L38.016 31.944H3.648V25.8H46.848V30.696L27.84 54.6Z" fill="#D1CB33"/>
<path d="M121.004 25.8L91.2435 93H84.2355L54.4755 25.8H62.1555L87.8835 84.168L113.804 25.8H121.004Z" fill="#388AC5"/>
<path d="M174.307 75.048H136.867L128.803 93H121.411L152.131 25.8H159.139L189.859 93H182.371L174.307 75.048ZM171.715 69.288L155.587 33.192L139.459 69.288H171.715Z" fill="#38C55F"/>
<path d="M15.35 141.3C12.75 141.3 10.25 140.883 7.85 140.05C5.48333 139.217 3.65 138.117 2.35 136.75L3.8 133.9C5.06667 135.167 6.75 136.2 8.85 137C10.95 137.767 13.1167 138.15 15.35 138.15C18.4833 138.15 20.8333 137.583 22.4 136.45C23.9667 135.283 24.75 133.783 24.75 131.95C24.75 130.55 24.3167 129.433 23.45 128.6C22.6167 127.767 21.5833 127.133 20.35 126.7C19.1167 126.233 17.4 125.733 15.2 125.2C12.5667 124.533 10.4667 123.9 8.9 123.3C7.33333 122.667 5.98333 121.717 4.85 120.45C3.75 119.183 3.2 117.467 3.2 115.3C3.2 113.533 3.66667 111.933 4.6 110.5C5.53333 109.033 6.96667 107.867 8.9 107C10.8333 106.133 13.2333 105.7 16.1 105.7C18.1 105.7 20.05 105.983 21.95 106.55C23.8833 107.083 25.55 107.833 26.95 108.8L25.7 111.75C24.2333 110.783 22.6667 110.067 21 109.6C19.3333 109.1 17.7 108.85 16.1 108.85C13.0333 108.85 10.7167 109.45 9.15 110.65C7.61667 111.817 6.85 113.333 6.85 115.2C6.85 116.6 7.26667 117.733 8.1 118.6C8.96667 119.433 10.0333 120.083 11.3 120.55C12.6 120.983 14.3333 121.467 16.5 122C19.0667 122.633 21.1333 123.267 22.7 123.9C24.3 124.5 25.65 125.433 26.75 126.7C27.85 127.933 28.4 129.617 28.4 131.75C28.4 133.517 27.9167 135.133 26.95 136.6C26.0167 138.033 24.5667 139.183 22.6 140.05C20.6333 140.883 18.2167 141.3 15.35 141.3ZM49.5617 139.4C48.8951 140 48.0617 140.467 47.0617 140.8C46.0951 141.1 45.0784 141.25 44.0117 141.25C41.5451 141.25 39.6451 140.583 38.3117 139.25C36.9784 137.917 36.3117 136.033 36.3117 133.6V117.7H31.6117V114.7H36.3117V108.95H39.8617V114.7H47.8617V117.7H39.8617V133.4C39.8617 134.967 40.2451 136.167 41.0117 137C41.8117 137.8 42.9451 138.2 44.4117 138.2C45.1451 138.2 45.8451 138.083 46.5117 137.85C47.2117 137.617 47.8117 137.283 48.3117 136.85L49.5617 139.4ZM79.7242 114.7V141H76.3242V136.2C75.3909 137.8 74.1076 139.05 72.4742 139.95C70.8409 140.817 68.9742 141.25 66.8742 141.25C63.4409 141.25 60.7242 140.3 58.7242 138.4C56.7576 136.467 55.7742 133.65 55.7742 129.95V114.7H59.3242V129.6C59.3242 132.367 60.0076 134.467 61.3742 135.9C62.7409 137.333 64.6909 138.05 67.2242 138.05C69.9909 138.05 72.1742 137.217 73.7742 135.55C75.3742 133.85 76.1742 131.5 76.1742 128.5V114.7H79.7242ZM113.667 103.9V141H110.267V135.8C109.2 137.567 107.783 138.917 106.017 139.85C104.283 140.783 102.317 141.25 100.117 141.25C97.6501 141.25 95.4168 140.683 93.4168 139.55C91.4168 138.417 89.8501 136.833 88.7168 134.8C87.5835 132.767 87.0168 130.45 87.0168 127.85C87.0168 125.25 87.5835 122.933 88.7168 120.9C89.8501 118.867 91.4168 117.3 93.4168 116.2C95.4168 115.067 97.6501 114.5 100.117 114.5C102.25 114.5 104.167 114.95 105.867 115.85C107.6 116.717 109.017 118 110.117 119.7V103.9H113.667ZM100.417 138.1C102.25 138.1 103.9 137.683 105.367 136.85C106.867 135.983 108.033 134.767 108.867 133.2C109.733 131.633 110.167 129.85 110.167 127.85C110.167 125.85 109.733 124.067 108.867 122.5C108.033 120.933 106.867 119.733 105.367 118.9C103.9 118.033 102.25 117.6 100.417 117.6C98.5501 117.6 96.8668 118.033 95.3668 118.9C93.9001 119.733 92.7335 120.933 91.8668 122.5C91.0335 124.067 90.6168 125.85 90.6168 127.85C90.6168 129.85 91.0335 131.633 91.8668 133.2C92.7335 134.767 93.9001 135.983 95.3668 136.85C96.8668 137.683 98.5501 138.1 100.417 138.1ZM123.554 114.7H127.104V141H123.554V114.7ZM125.354 108.95C124.62 108.95 124.004 108.7 123.504 108.2C123.004 107.7 122.754 107.1 122.754 106.4C122.754 105.733 123.004 105.15 123.504 104.65C124.004 104.15 124.62 103.9 125.354 103.9C126.087 103.9 126.704 104.15 127.204 104.65C127.704 105.117 127.954 105.683 127.954 106.35C127.954 107.083 127.704 107.7 127.204 108.2C126.704 108.7 126.087 108.95 125.354 108.95ZM147.731 141.25C145.198 141.25 142.915 140.683 140.881 139.55C138.848 138.383 137.248 136.783 136.081 134.75C134.915 132.717 134.331 130.417 134.331 127.85C134.331 125.283 134.915 122.983 136.081 120.95C137.248 118.917 138.848 117.333 140.881 116.2C142.915 115.067 145.198 114.5 147.731 114.5C150.265 114.5 152.548 115.067 154.581 116.2C156.615 117.333 158.198 118.917 159.331 120.95C160.498 122.983 161.081 125.283 161.081 127.85C161.081 130.417 160.498 132.717 159.331 134.75C158.198 136.783 156.615 138.383 154.581 139.55C152.548 140.683 150.265 141.25 147.731 141.25ZM147.731 138.1C149.598 138.1 151.265 137.683 152.731 136.85C154.231 135.983 155.398 134.767 156.231 133.2C157.065 131.633 157.481 129.85 157.481 127.85C157.481 125.85 157.065 124.067 156.231 122.5C155.398 120.933 154.231 119.733 152.731 118.9C151.265 118.033 149.598 117.6 147.731 117.6C145.865 117.6 144.181 118.033 142.681 118.9C141.215 119.733 140.048 120.933 139.181 122.5C138.348 124.067 137.931 125.85 137.931 127.85C137.931 129.85 138.348 131.633 139.181 133.2C140.048 134.767 141.215 135.983 142.681 136.85C144.181 137.683 145.865 138.1 147.731 138.1ZM175.379 141.25C173.246 141.25 171.196 140.95 169.229 140.35C167.296 139.717 165.779 138.933 164.679 138L166.279 135.2C167.379 136.067 168.762 136.783 170.429 137.35C172.096 137.883 173.829 138.15 175.629 138.15C178.029 138.15 179.796 137.783 180.929 137.05C182.096 136.283 182.679 135.217 182.679 133.85C182.679 132.883 182.362 132.133 181.729 131.6C181.096 131.033 180.296 130.617 179.329 130.35C178.362 130.05 177.079 129.767 175.479 129.5C173.346 129.1 171.629 128.7 170.329 128.3C169.029 127.867 167.912 127.15 166.979 126.15C166.079 125.15 165.629 123.767 165.629 122C165.629 119.8 166.546 118 168.379 116.6C170.212 115.2 172.762 114.5 176.029 114.5C177.729 114.5 179.429 114.733 181.129 115.2C182.829 115.633 184.229 116.217 185.329 116.95L183.779 119.8C181.612 118.3 179.029 117.55 176.029 117.55C173.762 117.55 172.046 117.95 170.879 118.75C169.746 119.55 169.179 120.6 169.179 121.9C169.179 122.9 169.496 123.7 170.129 124.3C170.796 124.9 171.612 125.35 172.579 125.65C173.546 125.917 174.879 126.2 176.579 126.5C178.679 126.9 180.362 127.3 181.629 127.7C182.896 128.1 183.979 128.783 184.879 129.75C185.779 130.717 186.229 132.05 186.229 133.75C186.229 136.05 185.262 137.883 183.329 139.25C181.429 140.583 178.779 141.25 175.379 141.25Z" fill="black"/>
</svg>
